<?xml version="1.0" standalone="no"?>
<!DOCTYPE svg PUBLIC "-//W3C//DTD SVG 20010904//EN"
 "http://www.w3.org/TR/2001/REC-SVG-20010904/DTD/svg10.dtd">
<svg version="1.0" xmlns="http://www.w3.org/2000/svg"
 width="512.000000pt" height="512.000000pt" viewBox="0 0 512.000000 512.000000"
 preserveAspectRatio="xMidYMid meet">
<metadata>
Created by potrace 1.14, written by Peter Selinger 2001-2017
</metadata>
<g transform="translate(0.000000,512.000000) scale(0.100000,-0.100000)"
fill="#000000" stroke="none">
<path d="M855 4686 c-66 -21 -99 -42 -144 -91 -62 -67 -79 -111 -74 -194 5
-93 -7 -107 -111 -126 -95 -18 -133 -36 -180 -82 -62 -63 -81 -114 -81 -223 0
-89 2 -100 37 -173 48 -100 123 -177 215 -220 73 -33 81 -34 363 -27 92 2 120
-9 194 -77 l57 -53 -19 -37 c-10 -21 -48 -93 -85 -160 -37 -68 -82 -160 -101
-205 -30 -76 -39 -103 -52 -163 -11 -44 -12 -213 -3 -260 5 -27 12 -63 15 -80
16 -97 110 -302 207 -456 63 -101 181 -259 281 -378 39 -46 82 -98 96 -115 75
-96 178 -180 405 -331 122 -81 197 -151 425 -392 145 -153 217 -196 387 -227
117 -22 223 -31 343 -30 157 2 219 27 497 206 l58 37 6 -117 c5 -122 17 -168
63 -246 138 -236 496 -306 657 -129 56 61 73 105 85 218 10 100 29 115 136
115 77 0 129 24 194 88 116 116 134 290 46 472 -34 73 -109 155 -177 195 -96
56 -233 73 -358 45 l-37 -8 19 32 c32 53 106 198 130 256 13 30 29 69 36 85
69 163 83 315 40 450 -33 104 -176 392 -224 453 -99 125 -208 211 -548 436
-122 80 -228 152 -235 158 -7 7 -34 29 -60 49 -71 54 -117 98 -188 179 -136
157 -259 270 -390 357 -87 58 -254 144 -323 167 -89 29 -218 46 -317 41 -176
-8 -321 -65 -493 -194 -60 -45 -112 -81 -117 -81 -5 0 -38 28 -73 63 -76 74
-85 103 -69 227 6 41 9 111 8 156 -6 224 -193 398 -431 402 -38 1 -88 -5 -110
-12z"/>
</g>
</svg>
